SplineFontDB: 3.2
FontName: Untitled1
FullName: Untitled1
FamilyName: Untitled1
Weight: Regular
Copyright: Copyright (c) 2021, Shifat
UComments: "2021-1-18: Created with FontForge (http://fontforge.org)"
Version: 001.000
ItalicAngle: 0
UnderlinePosition: -100
UnderlineWidth: 50
Ascent: 800
Descent: 200
InvalidEm: 0
LayerCount: 2
Layer: 0 0 "Back" 1
Layer: 1 0 "Fore" 0
XUID: [1021 752 534662743 19427]
OS2Version: 0
OS2_WeightWidthSlopeOnly: 0
OS2_UseTypoMetrics: 1
CreationTime: 1610971645
ModificationTime: 1611036616
OS2TypoAscent: 0
OS2TypoAOffset: 1
OS2TypoDescent: 0
OS2TypoDOffset: 1
OS2TypoLinegap: 0
OS2WinAscent: 0
OS2WinAOffset: 1
OS2WinDescent: 0
OS2WinDOffset: 1
HheadAscent: 0
HheadAOffset: 1
HheadDescent: 0
HheadDOffset: 1
OS2Vendor: 'PfEd'
DEI: 91125
Encoding: ISO8859-1
UnicodeInterp: none
NameList: AGL For New Fonts
DisplaySize: -48
AntiAlias: 1
FitToEm: 0
WinInfo: 27 27 9
Grid
-1763.06671143 1300 m 0
 -1763.06671143 -700 l 1024
EndSplineSet
BeginChars: 257 41

StartChar: a
Encoding: 97 97 0
Width: 219
Flags: HW
LayerCount: 2
Fore
SplineSet
138 241 m 4
 138 291.194335938 44 292.985351562 44 245 c 4
 44 214.100585938 82.0615234375 208 109 208 c 4
 130.453125 208 138 220.166015625 138 241 c 4
2 357 m 0
 -73.9873046875 357 51.212890625 455 106 455 c 0
 168.235351562 455 190 321.744140625 190 270 c 0
 190 266 190 260 190 256 c 0
 190 238.9609375 187.595703125 214 202 214 c 0
 213.106445312 214 213 207.34765625 213 198.28515625 c 0
 213 178.61328125 219.231445312 163.765625 193 166 c 0
 171.985351562 167.790039062 168.375 208.508789062 168 211 c 0
 167.611328125 213.580078125 158.958007812 170.986328125 119 166 c 0
 109.875976562 164.861328125 90.3828125 167 82 167 c 0
 21.3115234375 167 2 189.5 2 250 c 0
 2 302.264648438 51.0732421875 314.615234375 88 315 c 0
 127.466796875 315.411132812 136 291.202148438 136 351 c 0
 136 379.189453125 125.208984375 410 97 410 c 0
 86.7138671875 410 69.4423828125 407.0546875 61 402 c 0
 51.0478515625 396.041015625 11.5458984375 357 2 357 c 0
EndSplineSet
EndChar

StartChar: b
Encoding: 98 98 1
Width: 301
Flags: HW
LayerCount: 2
Fore
SplineSet
112 292 m 5
 117.41796875 277.927734375 137.6640625 256.90234375 170 254 c 4
 196.790039062 251.595703125 235.509765625 279.969726562 228 282 c 4
 228 282 231 304 234 338 c 4
 235.94140625 360.004882812 223.025390625 381.94140625 202 396 c 5
 202 396 171 417 152 410 c 28
 127 401 115 385 106 360 c 28
 97 335 106.001953125 322.666992188 112 292 c 5
20 608 m 1
 20 608 83 623 88 602 c 0
 106.14453125 525.791015625 88 430 88 430 c 25
 88 430 99 456 128 463.203125 c 0
 171.2734375 473.953125 204 470 240 444 c 0
 267.89453125 423.853515625 275 388 280 354 c 0
 286.338867188 310.897460938 277.935546875 291.139648438 270 248 c 0
 264.374023438 217.416015625 208.756835938 198.833007812 196 198.200195312 c 9
 196 198.200195312 146 185 118 198.02734375 c 24
 96 208 86 250 86 250 c 1
 86 250 79.9345703125 199.72265625 60 197.922851562 c 0
 44.333984375 196.508789062 25.2626953125 200.2265625 24 197.869140625 c 1
 20 608 l 1
EndSplineSet
EndChar

StartChar: c
Encoding: 99 99 2
Width: 338
Flags: HW
LayerCount: 2
Fore
SplineSet
227 375 m 24
 216 391 179 393 179 393 c 25
 179 393 143 395 125 384 c 0
 108.900390625 374.161132812 92 365 87 346 c 0
 81.685546875 325.806640625 82.7587890625 293.418945312 91 274 c 0
 107.365234375 235.4375 131 239.2890625 161 237 c 0
 185.626953125 235.12109375 200 236 224 240 c 24
 323.603515625 258.97265625 376.658203125 187.959960938 241 172 c 24
 199 166 143 174 143 174 c 25
 143 174 96 180 74 198.39453125 c 24
 45 222 25 239 17 276 c 24
 7 322 6 357 32 396 c 24
 59 437 92 450 140 462.278320312 c 0
 196.096679688 476.62890625 198.564453125 474.692382812 251 461.787109375 c 0
 290.326171875 452.108398438 315.271484375 427.331054688 314 372 c 0
 313.119140625 333.672851562 245.39453125 298.84765625 221 333 c 24
 211 347 236 361 227 375 c 24
EndSplineSet
Validated: 33
EndChar

StartChar: d
Encoding: 100 100 3
Width: 416
Flags: HW
LayerCount: 2
Fore
SplineSet
248 371 m 0
 106.241210938 609.622070312 -71.2861328125 150.938476562 235 265 c 0
 263.685546875 275.682617188 263.591796875 344.75390625 248 371 c 0
266 674 m 0
 272 702 338 682.000976562 338 682.000976562 c 1
 383.034179688 360.525390625 369.944335938 41.9248046875 298 275 c 1
 272.0859375 156.631835938 58.3169423245 163.633296503 19 294 c 0
 9.24607612696e-16 357 -0.993508537238 407.539545302 52 441 c 0
 242.925179587 561.551431649 253.267378471 426.181809529 284 433 c 1
 284 433 246.273083882 581.941058118 266 674 c 0
EndSplineSet
Validated: 33
EndChar

StartChar: e
Encoding: 101 101 4
Width: 353
Flags: HW
LayerCount: 2
Fore
SplineSet
162 446 m 4
 145.397460938 444.418945312 115.98046875 430.703125 105 425 c 4
 85.0927734375 414.66015625 84.9296875 394.6171875 88 396 c 5
 89.09375 347.874023438 153.517578125 392.510742188 222 393 c 4
 230.393554688 393.059570312 236.256835938 413.268554688 224 428 c 4
 210.331054688 444.428710938 183 448 162 446 c 4
128 333 m 0
 81.8837890625 327.278320312 76.158203125 321.797851562 89 273 c 0
 94 254 105.294921875 245.185546875 119 236 c 0
 153.000976562 213.211914062 188.03515625 217.51953125 208 232 c 0
 262.62890625 271.622070312 246 271.025390625 299 278 c 0
 319.0546875 280.638671875 353.872070312 264.473632812 341 248.974609375 c 0
 298.40234375 197.681640625 221.634765625 158.500976562 121 185 c 0
 94.0380859375 192.099609375 74 204 53 221.974609375 c 0
 31.392578125 240.46875 23 257 17 284.974609375 c 24
 9 320 7 343 17 377.974609375 c 24
 28 415 36 442 68 463.354492188 c 24
 107 489 141 495.111328125 186 489.974609375 c 24
 220 486.111328125 250.506835938 469.311523438 269 440.974609375 c 0
 287.72265625 412.286132812 281.791015625 376.974609375 257 353.974609375 c 0
 224.305664062 323.642578125 172.436523438 338.513671875 128 333 c 0
EndSplineSet
EndChar

StartChar: f
Encoding: 102 102 5
Width: 284
Flags: HW
LayerCount: 2
Fore
SplineSet
219 530 m 0
 196.444335938 540.966796875 170.340820312 576.853515625 162 575 c 0
 126 567 132.381835938 550.440429688 114 487 c 0
 105.134765625 456.403320312 124 462.309570312 161 474 c 0
 177.047851562 479.0703125 161.913085938 461.155273438 179 455.999023438 c 0
 250.333984375 434.475585938 216.155273438 402.4453125 161 404.999023438 c 0
 128 405 l 0
 120.791992188 405 116 407.603515625 116 402 c 0
 116 281.483398438 127 80 127 80 c 1
 -35.5068359375 14.427734375 7.830078125 171.302734375 32 421 c 0
 44.724609375 552.451171875 101.052734375 688.068359375 173 684 c 0
 350.51171875 673.961914062 306.139648438 487.6328125 219 530 c 0
EndSplineSet
Validated: 33
EndChar

StartChar: g
Encoding: 103 103 6
Width: 312
Flags: HW
LayerCount: 2
Fore
SplineSet
108 420 m 1
 66 400 92 234 152 262 c 1
 200.05078125 260.8984375 297.051757812 375.358398438 152 428 c 1
 108 420 l 1
248 440 m 1
 252 461.56640625 l 2
 296 482 l 1
 290.8359375 290.94140625 283.111328125 82.373046875 278 -142 c 1
 -50.7880859375 -245.262695312 -69.892578125 137.766601562 170 166 c 1
 192.013671875 182.936523438 181.610351562 134.440429688 172 96 c 0
 172 96 87.3232421875 63.9228515625 82 24 c 0
 66 -96 162.173828125 -85.5341796875 209 -98 c 1
 209 -98 213.8203125 44.537109375 220 129 c 0
 231.89453125 291.563476562 265.748046875 242.89453125 174 214 c 0
 149.127929688 206.166992188 116.321289062 209.983398438 97 219 c 0
 82 226 44.896484375 272.829101562 40 312 c 0
 28 408 43.3505859375 466.049804688 143 487 c 0
 168.33203125 492.326171875 248 440 248 440 c 1
EndSplineSet
Validated: 33
EndChar

StartChar: h
Encoding: 104 104 7
Width: 424
Flags: HW
LayerCount: 2
Fore
SplineSet
16 684 m 25
 16 684 90 712 103 681 c 24
 134 609 103 480 103 480 c 25
 157 519 l 25
 157 519 234 523 280 510 c 24
 318 500 370 461.615234375 370 461.615234375 c 25
 370 461.615234375 414 390 418 339 c 24
 422 283 426 240 388 199.115234375 c 24
 362 171 289 198.794921875 289 198.794921875 c 25
 289 198.794921875 316 289 298 342 c 24
 285 381 257 402 217 411 c 0
 176.047851562 420.213867188 112 384 112 384 c 25
 112 384 141 262 106 198.266601562 c 0
 87.79296875 165.11328125 10 198.044921875 10 198.044921875 c 25
 16 684 l 25
EndSplineSet
Validated: 33
EndChar

StartChar: i
Encoding: 105 105 8
Width: 162
Flags: HW
LayerCount: 2
Fore
SplineSet
30 441 m 0
 10.2683177014 466.212705159 14 500 36 522 c 24
 59 545 91 547 120 531 c 24
 145 517 148 490 144 462.106445312 c 0
 141.394805823 443.939413749 126 429 126 429 c 1
 126 429 48 418 30 441 c 0
30 384 m 0
 24.5693359375 343.513671875 106.486328125 377.274414062 117 360 c 0
 151.274414062 303.685546875 99 192.583007812 99 192.583007812 c 25
 9 198.313476562 l 1
 4.69140625 197.791015625 36.931640625 435.680664062 30 384 c 0
EndSplineSet
Validated: 33
EndChar

StartChar: j
Encoding: 106 106 9
Width: 364
Flags: HW
LayerCount: 2
Fore
SplineSet
118 520 m 25
 162 568 l 25
 220 548 l 25
 218 508 l 25
 182 468 l 25
 140 470 l 25
 118 520 l 25
70 420 m 25
 290 420 l 25
 262 140 l 25
 160 72 l 25
 78 116 l 25
 62 190 l 25
 94 226 l 25
 150 222 l 25
 138 166 l 25
 100 166 l 25
 102 144 l 25
 158 126 l 25
 216 170 l 1
 218 276 l 25
 212 334 l 1
 210 370 l 25
 70 364 l 25
 70 420 l 25
EndSplineSet
Validated: 1
EndChar

StartChar: k
Encoding: 107 107 10
Width: 286
Flags: HW
LayerCount: 2
Fore
SplineSet
74 612 m 1
 64 424 l 1
 104 432 l 1
 140 454 l 1
 182 496 l 1
 236 466 l 1
 238.11167233 427.200536704 117.473632812 381.37890625 82 378 c 1
 220 284 l 1
 276.50390625 166.657226562 122.92578125 225.081054688 72 352 c 1
 22.912109375 261.864257812 166.514648438 209.665039062 0 240 c 9
 0 610 l 1
 74 612 l 1
EndSplineSet
Validated: 33
EndChar

StartChar: l
Encoding: 108 108 11
Width: 241
Flags: HW
LayerCount: 2
Fore
SplineSet
5 666 m 1
 12.7225716757 697.100287931 36.4291187312 705.588714416 92 669 c 1
 92 669 65.8749272995 325.802744326 89 291 c 0
 128.213396083 231.984669943 150.923808385 316.213344833 155 315 c 0
 177.044498088 308.438096054 196.801757812 309.250976562 203 288 c 0
 210 264 220.73062126 257.396264764 200 243 c 0
 164 218 173.904296875 204.536132812 131 197.91015625 c 0
 92 191.88671875 75.7793312495 184.400486877 38 197.892578125 c 0
 18 205.03515625 11 258 11 258 c 1
 5 666 l 1
EndSplineSet
Validated: 33
EndChar

StartChar: m
Encoding: 109 109 12
Width: 327
Flags: HW
LayerCount: 2
Fore
SplineSet
41 397 m 25
 -44.5954823982 344.898402018 23 434 39 443.799804688 c 24
 54 453 71.7656347648 427.906101571 77 419 c 1
 115.243808717 432.664083569 141.408179616 461.221125101 169 421 c 1
 185 399 l 25
 195.011527712 426.531701209 229.330917915 451.24857296 267 425.000976562 c 0
 299.516601562 402.341796875 309.080078125 266.1875 307 267.000976562 c 1
 323 193.286132812 l 1
 285.190589837 193.645648689 233.109822318 404.347023113 221 391 c 1
 170.368123041 284.673058386 178.853362538 44.9429463712 155 361 c 1
 125.632737639 429.523612175 19.5872118979 14.2620001469 63 323 c 1
 63 323 80.2868483906 427.79736795 41 397 c 25
EndSplineSet
Validated: 33
EndChar

StartChar: n
Encoding: 110 110 13
Width: 227
Flags: HW
LayerCount: 2
Fore
SplineSet
37 415 m 0
 -68.705078125 415.68359375 70.6923828125 452.71484375 78 414 c 1
 91.947265625 437.245117188 115.140330402 438.89336787 153 437 c 1
 243.043234374 405.220034927 213.470120449 301.590522251 232 211 c 1
 178.070212074 204.706538039 192.543048543 355.585327438 166 380 c 0
 96.028664269 444.360627147 55.1239567071 50.0688426324 51 304 c 0
 50.4118473205 340.215290612 67.291015625 414.803710938 37 415 c 0
EndSplineSet
Validated: 33
EndChar

StartChar: o
Encoding: 111 111 14
Width: 306
Flags: HW
LayerCount: 2
Fore
SplineSet
55 328 m 0
 42.9384765625 285.036132812 81 216 85 223 c 1
 85 223 116 210 133 213 c 0
 172.020301032 219.885935476 201 225 223 258 c 0
 241.76953125 286.155273438 228 312 220 345 c 0
 213.200195312 373.048828125 194 375 172 393 c 0
 139.256396121 419.790221355 71.7236328125 387.571289062 55 328 c 0
4 356 m 0
 27.0966796875 431.790039062 103 452 103 452 c 0
 246.017578125 434.135742188 197.031068078 446.264452445 242 421 c 0
 272.505567232 403.861357393 311.471679688 245.268554688 245 196 c 0
 133.401367188 113.283203125 -50.9638671875 175.639648438 4 356 c 0
EndSplineSet
Validated: 33
EndChar

StartChar: p
Encoding: 112 112 15
Width: 327
Flags: HW
LayerCount: 2
Fore
SplineSet
82 363 m 0
 77.9999995825 326.591614199 128.106756406 270.494794237 163 270 c 0
 187.112447855 269.658079932 193.962738295 258.998163825 217 273 c 0
 243.088028447 288.856064194 250.71875 320.866210938 238 348 c 0
 223 380 181 393 181 393 c 0
 148.977539062 395.745117188 85.5218890958 395.056570891 82 363 c 0
72 435 m 0
 78 419.311523438 144 465 182 465 c 0
 201 465 248.960499357 428.011043693 262 415 c 0
 353.871285329 323.329211355 263.8125 204.110351562 201 207 c 0
 103.432617188 211.489257812 86.7138671875 258.986328125 84 261.713867188 c 1
 78.6890959038 168.705221479 91.0415318257 104.285953961 96 15 c 1
 41 0 l 1
 33 61 l 1
 25 239 l 1
 19 454 l 1
 68 469 l 1
 81 444 66.0003258245 450.687624614 72 435 c 0
EndSplineSet
Validated: 33
EndChar

StartChar: q
Encoding: 113 113 16
Width: 405
Flags: HW
LayerCount: 2
Fore
SplineSet
245 394.84375 m 0
 246.400390625 386.326171875 257.39453125 366.31640625 258.078125 360.62109375 c 1
 274.322265625 542.255859375 267.248046875 102.384765625 276 59 c 1
 321.814871725 178.752739956 292.791015625 215.811523438 322 201 c 1
 363 186 l 1
 352.953125 155.712890625 322.629882812 28.703125 305 6 c 1
 305 6 l 1
 303.125786994 -13.1493889994 237.411932217 -23.1418612255 231 -3 c 0
 223.359775418 21.0003072495 239.521556196 152.233385409 240 267 c 0
 240.128418994 297.80448126 198.870117188 212.770507812 173 195.428710938 c 0
 114.799268587 156.414381983 53.942794903 173.316653518 38 216 c 0
 10.4887669475 289.655309479 16.0122910459 355.204983739 73 434 c 0
 112.315910452 488.360806219 236.517578125 446.439453125 245 394.84375 c 0
128 393 m 0
 116.210269115 390.550051909 111 389 97 372 c 4
 78.03515625 348.970703125 69 291 83 264 c 4
 97.6218707774 235.800677786 133.91015625 237.252929688 162 253 c 4
 194.736328125 271.352539062 194.993164062 305.5 201 358 c 4
 201.329101562 360.875976562 185.672930978 404.984640576 128 393 c 0
EndSplineSet
EndChar

StartChar: r
Encoding: 114 114 17
Width: 185
Flags: HW
LayerCount: 2
Fore
SplineSet
20 523 m 1
 76 543 l 1
 74 466 l 1
 74 466 104 521 138 535 c 24
 157 543 191 505 191 505 c 1
 246.11328125 342.567382812 123.002929688 289.375 158 417 c 1
 29.2841864408 516.192714447 109.954101562 91.904296875 32 281 c 1
 20 523 l 1
EndSplineSet
Validated: 33
EndChar

StartChar: s
Encoding: 115 115 18
Width: 272
Flags: HW
LayerCount: 2
Fore
SplineSet
219 423 m 0
 182.623046875 412.96484375 184.874023438 472.333984375 150 459 c 0
 116 446 86.8212890625 438.678710938 75 405 c 0
 34.0390625 288.298828125 224 325 238 264 c 1
 242.092773438 263.037109375 252.49609375 227.959960938 249 213 c 0
 247.866210938 208.146484375 267.81640625 155.642578125 180 108 c 0
 -46.0400390625 -14.6318359375 -5.5302734375 239.9765625 39 231 c 1
 31.8525390625 228.1171875 168.487304688 80.40234375 176 220 c 1
 167.057617188 236.786132812 176.600585938 227.861328125 161 240 c 0
 143.762695312 253.411132812 108 257 108 257 c 0
 108 257 3 288 12 372 c 0
 23.7548828125 481.71484375 99 525 132 528 c 0
 168.484375 531.31640625 206.448242188 506.841796875 231 483 c 0
 259.611328125 455.215820312 258.126953125 433.793945312 219 423 c 0
EndSplineSet
Validated: 33
EndChar

StartChar: t
Encoding: 116 116 19
Width: 298
Flags: HW
LayerCount: 2
Fore
SplineSet
76 216 m 24
 24 399 36.5380859375 542.538085938 10 699 c 1
 100 678 l 1
 109 558 l 1
 250 591 l 1
 272.94921875 444.9296875 157.505859375 521.795898438 112 486 c 1
 133 270 l 0
 141 255 184 282 184 282 c 1
 190.786132812 315.213867188 177.979492188 378 208 378 c 3
 208 378 256 359 271 333 c 24
 283 313 279 294 268 273 c 24
 237.997070312 212.995117188 206 210 154 195.009765625 c 24
 124 186 85 186 76 216 c 24
EndSplineSet
Validated: 33
EndChar

StartChar: v
Encoding: 118 118 20
Width: 238
Flags: HW
LayerCount: 2
Fore
SplineSet
1 390 m 1
 55 420 l 1
 100 276 l 1
 130 408 l 1
 202 378 l 1
 133 195.78125 l 1
 73 196.352539062 l 1
 1 390 l 1
EndSplineSet
Validated: 1
EndChar

StartChar: u
Encoding: 117 117 21
Width: 356
Flags: HW
LayerCount: 2
Fore
SplineSet
-6 504 m 25
 -6 504 80.895674454 523.730882238 75 489 c 0
 20 165 193.447265625 238.998046875 195 387 c 0
 196.779123244 552.754982346 284.06492956 519.603873168 258 411 c 1
 252 300 l 1
 279.366444345 249.410710636 284.917071656 250.609422142 327 270 c 1
 345 216 l 25
 297.826806586 188.951248097 231.573826296 162.130868519 216 240 c 17
 31.9492673985 94.8197680302 -13.4578098334 337.446733223 -6 504 c 25
EndSplineSet
Validated: 33
EndChar

StartChar: w
Encoding: 119 119 22
Width: 135
Flags: HW
LayerCount: 2
Fore
SplineSet
40 318 m 1
 40 227 l 1
 76 254 l 5
 104 220 l 1
 98 324 l 1
 148 302 l 1
 128 181 l 1
 96 171 l 1
 96.4775390625 168.533203125 74 206 74 206 c 1
 56 176 l 1
 20 181 l 1
 -8 297 l 1
 3.1513671875 293.772460938 42.39453125 317.306640625 40 318 c 1
EndSplineSet
Validated: 37
EndChar

StartChar: x
Encoding: 120 120 23
Width: 415
Flags: HW
LayerCount: 2
Fore
SplineSet
94 387 m 1
 -24.2760809247 233.241094798 -21.6385774143 538.25470181 193 468 c 1
 220 417 l 1
 208 366 l 1
 307.769453144 485.038080216 390.54584802 396.484540019 349 378 c 9
 313 333 l 1
 286 279 l 2
 242.265625 191.530273438 361.286132812 204.633789062 424 225 c 9
 464.464333497 98.5489578227 187.342734553 80.9132437027 211 282 c 1
 153.840820312 237.31640625 115.838867188 127.680664062 43 213 c 1
 154 333 l 1
 137.588792349 355.593654206 140.705119201 403.182552578 94 387 c 1
EndSplineSet
Validated: 33
EndChar

StartChar: y
Encoding: 121 121 24
Width: 219
Flags: HW
LayerCount: 2
Fore
SplineSet
47 405 m 1
 95 409 l 1
 129 309 l 25
 169 401 l 1
 223 407 l 25
 105 123 l 25
 105 123 87 75 61 71 c 24
 36 67 20 87 9 109 c 24
 -1 129 -4 152 13 165 c 24
 27 176 40 131 53 143 c 24
 86 174 103 249 103 249 c 1
 97.6552734375 314.322265625 63.9521484375 351.28515625 47 405 c 1
EndSplineSet
Validated: 33
EndChar

StartChar: z
Encoding: 122 122 25
Width: 376
Flags: HW
LayerCount: 2
Fore
SplineSet
103 372 m 0
 79.4431926232 356.31316392 87 426 109 444.346341463 c 0
 132.823615541 464.213440809 175 459 175 459 c 1
 175 459 241 453 271 442.765853659 c 0
 287.989790919 436.969986773 294 423 298 405 c 0
 302.947501436 383.560827109 296 350 283 318 c 0
 274 295 244 267 244 267 c 1
 243.999999987 267.000000046 267.405642636 248.413166177 283.373954533 228.374483664 c 1
 349.569420288 247.114811315 418 267 418 267 c 1
 412 193.637695312 l 1
 412 193.637695312 362.888278629 185.560203827 306.613391679 175.50205621 c 1
 313.527914403 151.068762975 319 126 319 126 c 1
 319 126 313 76 307 57 c 0
 301 37 306 40 289 27 c 0
 227.420671539 -20.0900747052 116.562296644 -19.3394497473 88 36 c 0
 77 58 55 93 67 114 c 0
 83.4326129764 142.757072709 121 180 121 180 c 1
 121 180 143 193.010742188 163 196.009765625 c 0
 170.030101494 197.063937582 198.362085075 204.622522577 233.74136257 214.443367407 c 1
 226 225 l 1
 169 249 l 1
 166 267 l 1
 199 309 l 1
 232 366 l 1
 233.118527126 376.730301749 151.157323205 404.068693482 103 372 c 0
265.859991115 168.080768788 m 1
 209.828614116 157.663565708 156.474949694 146.737474847 145 141 c 4
 127.795349466 132.397674733 112 105 112 105 c 1
 112 105 127 79 142 69 c 4
 159.552120188 57.2985865417 201 51 220 60 c 4
 249 75 256 97 271 126 c 4
 277.731697798 139.014615742 271.557842999 156.569691319 265.859991115 168.080768788 c 1
EndSplineSet
EndChar

StartChar: exclam
Encoding: 33 33 26
Width: 232
Flags: HW
LayerCount: 2
Fore
SplineSet
52 51 m 0
 57.3125 69.21484375 90 110 109 108 c 0
 145.145507812 104.1953125 141 120 157 96 c 0
 174.698242188 69.4521484375 192 50 181 33 c 0
 174.665039062 23.208984375 148 0 148 0 c 1
 148 0 101 -13 76 0 c 24
 57 10 45 27 52 51 c 0
73 216 m 1
 73 216 22.517578125 344.029296875 28 429 c 0
 34.4453125 528.89453125 154.612304688 519.395507812 181 442.6484375 c 1
 178 405 l 1
 178 405 179 327 172 291 c 24
 157.452148438 224.49609375 139.157226562 207.733398438 112 153 c 25
 73 216 l 1
EndSplineSet
Validated: 33
EndChar

StartChar: exclam
Encoding: 44 33 27
Width: 232
Flags: HW
LayerCount: 2
Fore
SplineSet
52 51 m 0
 57.3125 69.21484375 90 110 109 108 c 0
 145.145507812 104.1953125 141 120 157 96 c 0
 174.698242188 69.4521484375 192 50 181 33 c 0
 174.665039062 23.208984375 148 0 148 0 c 1
 148 0 101 -13 76 0 c 24
 57 10 45 27 52 51 c 0
73 216 m 1
 73 216 22.517578125 344.029296875 28 429 c 0
 34.4453125 528.89453125 154.612304688 519.395507812 181 442.6484375 c 1
 178 405 l 1
 178 405 179 327 172 291 c 24
 157.452148438 224.49609375 139.157226562 207.733398438 112 153 c 25
 73 216 l 1
EndSplineSet
Validated: 33
EndChar

StartChar: comma
Encoding: 46 44 28
Width: 59
Flags: HW
LayerCount: 2
Fore
SplineSet
15 181 m 0
 -27.0806003744 177.917848431 43.5965565466 246.270860051 43 186 c 0
 42.7456743495 160.305158874 6 153 6 153 c 1
 9.08152298075 155.011539014 41.5957981224 186.442095982 30 194 c 1
 30 194 26.2055774299 181.820741333 15 181 c 0
EndSplineSet
Validated: 33
EndChar

StartChar: period
Encoding: 256 46 29
Width: 97
Flags: HW
LayerCount: 2
Fore
SplineSet
80 196.801757812 m 0
 86.3673859817 186.839970613 21.1259765625 134.858398438 2 195 c 0
 -10.29296875 233.654296875 40.7816413911 247.814424621 66 228 c 0
 80 217 74.4814453125 205.435546875 80 196.801757812 c 0
EndSplineSet
Validated: 33
EndChar

StartChar: zero
Encoding: 48 48 30
Width: 397
Flags: HW
LayerCount: 2
Fore
SplineSet
178 774 m 24
 219 767 246 760 277 732 c 0
 308 704 330 682 349 645 c 24
 362 620 355.862304688 599.973632812 361 573 c 0
 369 531 362.302734375 504.9921875 361 462 c 0
 360 429 334 381 334 381 c 25
 334 381 313 330 286 312 c 24
 250 288 181 279 181 279 c 25
 181 279 109 278 79 306 c 24
 38 344 28 380 13 435 c 24
 0 485 1 516 10 567 c 24
 17 608 30 630 52 666 c 24
 76 706 127 759 127 759 c 25
 127 759 158 778 178 774 c 24
142 690 m 24
 92 658 71 622 58 564 c 24
 44 503 51 462 76 405 c 24
 91 370 154 345 154 345 c 25
 154 345 211 335 244 348 c 24
 273 359 301 402 301 402 c 25
 325 495 l 1
 325 495 327 551 310 588 c 24
 293 624 271.302734375 658.440429688 238 681 c 0
 207 702 174 711 142 690 c 24
EndSplineSet
Validated: 33
EndChar

StartChar: one
Encoding: 49 49 31
Width: 328
Flags: HW
LayerCount: 2
Fore
SplineSet
43 603 m 1
 115 747 l 1
 196 747 l 1
 199 690 l 1
 223 339 l 1
 310 342 l 25
 298 273 l 1
 22 267 l 1
 16 342 l 25
 142 336 l 1
 130 657 l 25
 100 603 l 25
 43 603 l 1
EndSplineSet
Validated: 1
EndChar

StartChar: one
Encoding: 50 49 32
Width: 328
Flags: HW
LayerCount: 2
Fore
SplineSet
43 603 m 1
 115 747 l 1
 196 747 l 1
 199 690 l 1
 223 339 l 1
 310 342 l 25
 298 273 l 1
 22 267 l 1
 16 342 l 25
 142 336 l 1
 130 657 l 25
 100 603 l 25
 43 603 l 1
EndSplineSet
Validated: 1
EndChar

StartChar: two
Encoding: 51 50 33
Width: 404
Flags: HW
LayerCount: 2
Fore
SplineSet
171 567 m 25
 145 517 l 25
 67 531 l 25
 55 595 l 25
 85 663 l 25
 115 687 l 25
 183 697 l 25
 273 673 l 25
 309 621 l 25
 327 535 l 25
 321 449 l 25
 265 357 l 25
 203 309 l 25
 153 285 l 25
 271 287 l 25
 345 287 l 25
 371 287 l 25
 373 201 l 25
 121 211 l 25
 85 301 l 25
 227 453 l 25
 243 515 l 25
 249 559 l 25
 213 601 l 25
 171 567 l 25
EndSplineSet
Validated: 1
EndChar

StartChar: three
Encoding: 52 51 34
Width: 364
Flags: HW
LayerCount: 2
Fore
SplineSet
69 549 m 25
 63 635 l 25
 305 639 l 25
 303 533 l 25
 179 413 l 25
 281 349 l 25
 287 255 l 25
 209 191 l 25
 63 175 l 25
 39 263 l 25
 93 279 l 25
 105 229 l 25
 199 249 l 25
 239 279 l 25
 227 329 l 25
 151 369 l 25
 141 439 l 25
 237 541 l 25
 231 605 l 25
 111 605 l 25
 107 559 l 25
 69 549 l 25
EndSplineSet
Validated: 1
EndChar

StartChar: four
Encoding: 53 52 35
Width: 407
Flags: HW
LayerCount: 2
Fore
SplineSet
334 738 m 1
 115 534 l 1
 301 537 l 25
 286 597 l 1
 382 597 l 1
 406 192 l 1
 289 168 l 1
 301 477 l 1
 4 489 l 1
 148 770 l 9
 148 770 285.692382812 734.486328125 334 738 c 1
EndSplineSet
Validated: 33
EndChar

StartChar: five
Encoding: 54 53 36
Width: 328
Flags: HW
LayerCount: 2
Fore
SplineSet
297 764 m 5
 309 722 l 1
 83 736 l 1
 83 630 l 1
 149 630 l 1
 298.885742188 609.118164062 300.660721798 586.819158758 303 492 c 0
 304.693524896 423.355489978 331.081742032 298.595300525 185 288 c 1
 46.830650723 288 -11.8869480284 297.996434758 29 454 c 1
 29 454 96.1026044734 518.628729253 151 534 c 0
 176 541 199 474 199 474 c 1
 185 262 175.279688018 475.921535664 157 464 c 2
 157 464 89.6279044735 446.219264812 65 404 c 0
 51 380 83 334 83 334 c 1
 290.726197652 280.326612982 253.181968503 452.044823958 239 546 c 0
 229.521484375 608.794921875 39 588 39 588 c 1
 39 780 l 1
 297 764 l 5
EndSplineSet
EndChar

StartChar: seven
Encoding: 55 55 37
Width: 1000
Flags: H
LayerCount: 2
Fore
SplineSet
204 511 m 25
 192 643 l 25
 620 653 l 25
 296 31 l 25
 204 37 l 25
 424 491 l 25
 204 511 l 25
EndSplineSet
Validated: 1
EndChar

StartChar: seven
Encoding: 57 55 38
Width: 346
Flags: HW
LayerCount: 2
Fore
SplineSet
-8 799 m 25
 364 805 l 25
 172 233 l 25
 112 245 l 1
 216 553 l 25
 276 745 l 1
 -8 723 l 25
 -8 799 l 25
EndSplineSet
Validated: 1
EndChar

StartChar: eight
Encoding: 56 56 39
Width: 340
Flags: HW
LayerCount: 2
Fore
SplineSet
196 438 m 1
 144.732459732 431.267540268 102.393741033 415.606258967 88 372 c 1
 91.6523637743 329.652363774 121.524026752 313.524026752 152 298 c 17
 184.001397665 262.15527611 335.537669586 364.142857718 196 438 c 1
228 582 m 24
 255 595 276 642 276 642 c 25
 276 642 264 689 240 702 c 24
 209 718 150 708 150 708 c 25
 109.977779453 676.052863227 105.27384203 603.989053555 160 586 c 25
 160 586 204 570 228 582 c 24
60 634 m 0
 53.3522149911 806.842410232 197.876676642 799.061661679 292 752 c 0
 304 746 345.720139858 656.040979009 340 616 c 0
 334 574 288 520 288 520 c 25
 252 484 l 1
 314 424 l 25
 318 364 l 1
 318 364 306 284 262 252 c 24
 230 229 140 236 140 236 c 1
 18.3697671647 257.250016311 -17.1522161981 440.560899469 154 484 c 9
 180 502 l 1
 133.796263874 525.801924671 62.6956810032 563.912293918 60 634 c 0
EndSplineSet
Validated: 33
EndChar

StartChar: R
Encoding: 82 82 40
Width: 440
Flags: HW
LayerCount: 2
Fore
SplineSet
152 387 m 0
 212.449714691 -35.9154960218 19.057201251 172.028776617 8 138 c 1
 45 720 l 1
 108.510742188 786.221679688 296.461074974 918.422902172 408 713 c 0
 525.108489233 497.31954834 347.78125 468.729492188 236 403 c 1
 425 240 l 1
 423.346679688 188.6328125 378.001953125 130.383789062 293 150 c 1
 264.142578125 247.142578125 139.208755137 476.48951527 152 387 c 0
342 588 m 0
 399.975585938 676.4375 200.026367188 777.887695312 144 687 c 0
 49.6337890625 533.915039062 234.7265625 424.36328125 342 588 c 0
EndSplineSet
Validated: 33
EndChar
